<?xml version="1.0" encoding="UTF-8"?><svg xmlns="http://www.w3.org/2000/svg" xmlns:xlink="http://www.w3.org/1999/xlink" viewBox="0 0 40 34"><defs><style>.e{fill:none;}.f{fill:#979696;}.g{clip-path:url(#d);}</style><clipPath id="d"><rect class="e" width="40" height="34"/></clipPath></defs><g id="a"/><g id="b"><g id="c"><g class="g"><path class="f" d="M33.83,34h-.92c-.66-.16-1.26-.49-1.75-.95-.43-.46-.76-1.01-.95-1.61-.2-.59-.27-1.22-.2-1.84,0-.97-.27-1.26-1.12-1.26H10.85c-.12,0-.24,.04-.35,.09-.11,.05-.21,.12-.28,.21-.08,.09-.14,.19-.18,.3s-.05,.23-.04,.35v.97c.01,.73-.19,1.45-.58,2.08-.39,.62-.96,1.13-1.64,1.44l-.68,.22h-.93c-.28-.12-.57-.19-.85-.34-.66-.36-1.19-.89-1.54-1.54-.35-.65-.5-1.38-.43-2.1v-12.46c.04-.38-.03-.76-.21-1.09-.18-.33-.47-.61-.81-.78-.46-.23-.9-.48-1.32-.75-.33-.18-.59-.44-.77-.76C.05,13.86-.03,13.5,0,13.14v-1.65C0,10.22,.67,9.45,1.82,9.45h2.5c.88,0,1.22-.36,1.53-1.17,.78-2.09,1.58-4.15,2.35-6.24,.14-.58,.47-1.1,.96-1.47S10.24,0,10.85,0H29.18c.62-.02,1.23,.18,1.72,.55,.49,.37,.84,.9,.98,1.49,.77,2.11,1.6,4.2,2.37,6.31,.07,.32,.26,.61,.53,.81,.27,.2,.61,.3,.95,.28h2.15c.48-.06,.97,.06,1.36,.34,.39,.27,.67,.68,.76,1.15v2.65c-.09,.33-.25,.64-.47,.91-.22,.27-.5,.49-.81,.64-.42,.19-.8,.44-1.2,.66-.29,.15-.52,.38-.68,.66-.16,.28-.22,.6-.2,.91v12.73c.09,.86-.13,1.71-.62,2.43-.49,.71-1.23,1.24-2.08,1.48h-.12ZM20,13.21h11.45c.72,0,.92-.34,.65-1.09-.92-2.43-1.85-4.86-2.75-7.29-.08-.3-.26-.57-.51-.76-.25-.19-.57-.29-.89-.29H12.1c-.32,0-.64,.1-.89,.3-.25,.19-.43,.47-.51,.77-.9,2.43-1.83,4.86-2.75,7.29-.28,.78,0,1.12,.68,1.12l11.38-.05Zm-10,5.68h-2.5c-.9,0-.9,.36-.9,1v1.72c0,.56,.32,1.04,.93,1.04h4.98c.62,0,.93-.36,.95-1.07,.02-.7,0-1.09,0-1.65s-.45-1.04-.95-1.04h-2.5Zm20,0h-2.5c-.9,0-.92,.36-.92,1.04v1.65c0,.56,.33,1.07,.92,1.07h5c.6,0,.92-.36,.92-1.04v-1.6c0-.53-.33-1.12-1.03-1.12h-2.4Z"/></g></g></g></svg>