<?xml version="1.0" encoding="UTF-8"?><svg xmlns="http://www.w3.org/2000/svg" viewBox="0 0 35 39.97"><defs><style>.d{fill:#979696;}</style></defs><g id="a"/><g id="b"><g id="c"><path class="d" d="M17.6,27.85s.15,0,.2,.05c.08,.02,.12,.08,.18,.12,.1,.1,.15,.25,.15,.4v.15c.52,.07,1.05,.25,1.52,.5,.12,.05,.2,.15,.27,.25,.08,.1,.1,.22,.1,.35,0,.2-.07,.38-.2,.53-.12,.12-.3,.2-.5,.2-.12,0-.25-.05-.38-.1-.28-.15-.58-.27-.88-.38v1.62c1.62,.45,2.3,1.1,2.3,2.3s-.9,1.98-2.23,2.12v.58s0,.2-.05,.3-.12,.18-.2,.23c-.07,.05-.17,.08-.3,.1-.1,0-.2-.02-.3-.08-.1-.05-.15-.12-.2-.22-.05-.1-.05-.2-.05-.3v-.58c-.75-.1-1.47-.35-2.12-.75-.1-.05-.18-.15-.25-.22-.07-.08-.1-.2-.1-.3s0-.22,.05-.32c.05-.1,.1-.2,.18-.28s.15-.12,.22-.15c.08-.02,.18-.05,.28-.05,.15,0,.3,.03,.43,.12,.42,.3,.88,.5,1.38,.6v-1.7c-1.55-.42-2.3-1-2.3-2.28,0-.57,.25-1.1,.68-1.5,.42-.4,.98-.62,1.55-.62v-.12c.02-.15,.08-.27,.18-.38s.22-.17,.38-.17l.02-.02Zm-.5,3.48v-1.45c-.5,.08-.73,.33-.73,.67s.15,.55,.73,.78Zm.98,1.88v1.52c.5-.07,.75-.3,.75-.7,0-.38-.18-.58-.75-.8v-.02Zm4.88-.6c0,.95-.18,1.9-.53,2.78-.35,.88-.9,1.67-1.6,2.33l9.12-.08v-10.12h-9.1c.7,.67,1.23,1.48,1.6,2.35s.55,1.82,.52,2.75h-.02Zm-8.8-5.1l-9.1,.05v10.15H14.15c-.68-.7-1.23-1.48-1.6-2.35s-.55-1.8-.52-2.75c0-.95,.17-1.9,.55-2.75,.38-.88,.93-1.65,1.6-2.33h-.05l.03-.02Zm18.3-.48c0-.25-.05-.52-.15-.75-.1-.25-.25-.45-.42-.65-.17-.17-.4-.33-.65-.42-.25-.1-.5-.15-.77-.15H4.5c-.52-.02-1.05,.18-1.42,.55s-.58,.88-.6,1.4l.05,11c0,.25,.05,.53,.15,.75,.1,.25,.25,.45,.43,.65,.17,.17,.4,.32,.65,.42,.25,.1,.5,.15,.75,.15H30.52c.52,0,1.05-.17,1.4-.55,.38-.38,.58-.88,.58-1.4l-.05-11Zm-1.48,10.48c0,.12,0,.28-.08,.4-.05,.12-.12,.22-.23,.32-.1,.1-.2,.18-.32,.23s-.25,.08-.38,.08h-10.6c-.58,.22-1.2,.35-1.85,.35s-1.27-.12-1.85-.38H5.02c-.12,0-.25,0-.38-.08-.12-.05-.22-.12-.33-.2-.17-.2-.3-.45-.3-.72l-.05-10c0-.27,.1-.52,.27-.73,.2-.17,.45-.3,.72-.27H15.65c.58-.2,1.23-.33,1.85-.33s1.27,.12,1.85,.38h10.65c.12,0,.25,.03,.38,.08s.23,.12,.33,.2c.1,.1,.17,.2,.22,.32,.05,.12,.08,.25,.08,.38v9.98h-.02Zm2.9-25h-1.05V7.43c1.22-.15,2.17-1.18,2.17-2.43,0-1.38-1.12-2.5-2.5-2.5s-2.5,1.12-2.5,2.5c0,.8,.4,1.47,1,1.95l-7.55,4.6-4.6-7c.67-.45,1.15-1.18,1.15-2.05,0-1.38-1.12-2.5-2.5-2.5s-2.5,1.12-2.5,2.5c0,.88,.48,1.6,1.15,2.05l-4.6,7L4,6.95c.6-.45,1-1.15,1-1.95,0-1.38-1.12-2.5-2.5-2.5S0,3.62,0,5c0,1.28,.95,2.28,2.2,2.43v5.07H1.12c-.62,0-1.12,.5-1.12,1.12v.25c0,.62,.5,1.12,1.12,1.12h1.05v5H1.12c-.62,0-1.12,.5-1.12,1.12v.25c0,.62,.5,1.12,1.12,1.12H33.88c.62,0,1.12-.5,1.12-1.12v-.25c0-.62-.5-1.12-1.12-1.12h-1.08v-5h1.08c.62,0,1.12-.5,1.12-1.12v-.25c0-.62-.5-1.12-1.12-1.12ZM7.5,20c-1.38,0-2.5-1.12-2.5-2.5s1.12-2.5,2.5-2.5,2.5,1.12,2.5,2.5-1.12,2.5-2.5,2.5Zm10,0c-1.38,0-2.5-1.12-2.5-2.5s1.12-2.5,2.5-2.5,2.5,1.12,2.5,2.5-1.12,2.5-2.5,2.5Zm10,0c-1.38,0-2.5-1.12-2.5-2.5s1.12-2.5,2.5-2.5,2.5,1.12,2.5,2.5-1.12,2.5-2.5,2.5Z"/></g></g></svg>