<?xml version="1.0" encoding="UTF-8"?><svg xmlns="http://www.w3.org/2000/svg" xmlns:xlink="http://www.w3.org/1999/xlink" viewBox="0 0 40 40"><defs><style>.e{fill:none;}.f{fill:#8ab232;}.g{clip-path:url(#d);}</style><clipPath id="d"><rect class="e" width="40" height="40"/></clipPath></defs><g id="a"/><g id="b"><g id="c"><g class="g"><g><path class="f" d="M40,17.5H0v7.5H40v-7.5Z"/><path class="f" d="M25,5V2.5c0-.66-.26-1.3-.73-1.77-.47-.47-1.1-.73-1.77-.73h-5c-.66,0-1.3,.26-1.77,.73-.47,.47-.73,1.1-.73,1.77v2.5h-2.5l7.5,10h7.5V5h-2.5Z"/><path class="f" d="M30,7.5h5c.66,0,1.3,.26,1.77,.73,.47,.47,.73,1.1,.73,1.77v5h-7.5V7.5Z"/><path class="f" d="M13.13,15h3.12L7.25,3c-.2-.27-.5-.44-.82-.49-.33-.05-.66,.04-.93,.24-.27,.2-.44,.5-.49,.82-.05,.33,.04,.66,.24,.93l7.88,10.5Z"/><path class="f" d="M2.5,12.5c0,.88,.25,1.74,.7,2.5h6.8l-5-6.78c-.75,.43-1.38,1.06-1.82,1.81-.44,.75-.67,1.6-.68,2.47Z"/><path class="f" d="M2.5,27.5l2.1,10.5c.12,.57,.43,1.09,.89,1.45,.46,.37,1.03,.56,1.61,.55h25.9c.58,.01,1.16-.18,1.61-.55,.46-.37,.77-.88,.89-1.45l2.1-10.5H2.5Zm10,6.25c0,.33-.13,.65-.37,.88-.23,.23-.55,.37-.88,.37s-.65-.13-.88-.37c-.23-.23-.37-.55-.37-.88v-2.5c0-.33,.13-.65,.37-.88,.23-.23,.55-.37,.88-.37s.65,.13,.88,.37c.23,.23,.37,.55,.37,.88v2.5Zm8.75,0c0,.33-.13,.65-.37,.88-.23,.23-.55,.37-.88,.37s-.65-.13-.88-.37c-.23-.23-.37-.55-.37-.88v-2.5c0-.33,.13-.65,.37-.88,.23-.23,.55-.37,.88-.37s.65,.13,.88,.37c.23,.23,.37,.55,.37,.88v2.5Zm8.75,0c0,.33-.13,.65-.37,.88-.23,.23-.55,.37-.88,.37s-.65-.13-.88-.37c-.23-.23-.37-.55-.37-.88v-2.5c0-.33,.13-.65,.37-.88,.23-.23,.55-.37,.88-.37s.65,.13,.88,.37c.23,.23,.37,.55,.37,.88v2.5Z"/></g></g></g></g></svg>