<?xml version="1.0" encoding="UTF-8"?><svg xmlns="http://www.w3.org/2000/svg" xmlns:xlink="http://www.w3.org/1999/xlink" viewBox="0 0 40 40"><defs><style>.e{fill:none;}.f{fill:#979696;}.g{clip-path:url(#d);}</style><clipPath id="d"><rect class="e" width="40" height="40"/></clipPath></defs><g id="a"/><g id="b"><g id="c"><g class="g"><path class="f" d="M20.01,25c4.15,0,7.5-3.35,7.5-7.5s-3.35-7.5-7.5-7.5-7.5,3.35-7.5,7.5,3.35,7.5,7.5,7.5Zm19.99-10c0,8.15-7.5,25-17.49,25h-5C7.5,40,0,23.15,0,15c0,0,0-2.5,2.5-2.5,2,0,2.5,2.5,2.5,2.5,2.75,8.77,4.88,10.25,10.01,12.5,3.53,1.55,6.4,1.4,10.01,0,5.2-2.02,7.25-3.73,10.01-12.5,0,0,.5-2.5,2.5-2.5,2.5,0,2.5,2.5,2.5,2.5h-.03ZM5,10c-1.38,0-2.5-1.12-2.5-2.5s1.13-2.5,2.5-2.5,2.5,1.12,2.5,2.5-1.13,2.5-2.5,2.5ZM15.01,5c-1.38,0-2.5-1.12-2.5-2.5s1.13-2.5,2.5-2.5,2.5,1.12,2.5,2.5-1.13,2.5-2.5,2.5Zm20.01,5c-1.38,0-2.5-1.12-2.5-2.5s1.13-2.5,2.5-2.5,2.5,1.12,2.5,2.5-1.13,2.5-2.5,2.5Zm-10.01-5c-1.38,0-2.5-1.12-2.5-2.5s1.13-2.5,2.5-2.5,2.5,1.12,2.5,2.5-1.13,2.5-2.5,2.5Z"/></g></g></g></svg>