<?xml version="1.0" encoding="UTF-8"?><svg xmlns="http://www.w3.org/2000/svg" xmlns:xlink="http://www.w3.org/1999/xlink" viewBox="0 0 40 40"><defs><style>.e{fill:none;}.f{fill:#979696;}.g{clip-path:url(#d);}</style><clipPath id="d"><rect class="e" width="40" height="40"/></clipPath></defs><g id="a"/><g id="b"><g id="c"><g class="g"><path class="f" d="M39.35,24.23L17.95,2.28c-.88-.9-2.28-.9-3.15,0l-1.57,1.6c.88-.9,.88-2.33,0-3.23-.88-.9-2.28-.9-3.15,0L2.23,8.73c-.8,.82-.87,2.1-.17,3l9.8,12.9-1.75,1.8c-.87-.9-2.27-.9-3.15,0L.65,32.9c-.88,.9-.88,2.32,0,3.22l3.15,3.22c.88,.9,2.27,.9,3.15,0l6.27-6.45c.88-.9,.88-2.33,0-3.23l3.15-3.22c.8-.83,.88-2.1,.17-3L6.75,10.52l3.32-3.4c-.87,.9-.87,2.33,0,3.22l21.43,21.95c.88,.9,2.28,.9,3.15,0l4.72-4.82c.88-.9,.88-2.33,0-3.23l-.03-.02Z"/></g></g></g></svg>