<?xml version="1.0" encoding="UTF-8"?><svg xmlns="http://www.w3.org/2000/svg" xmlns:xlink="http://www.w3.org/1999/xlink" viewBox="0 0 46 40"><defs><style>.e{fill:none;}.f{fill:#979696;}.g{clip-path:url(#d);}</style><clipPath id="d"><rect class="e" width="46" height="40"/></clipPath></defs><g id="a"/><g id="b"><g id="c"><g class="g"><g><path class="f" d="M41.97,1.54L27.08,.26h-.4c-2.27,0-4.2,1.69-4.4,3.91l-.2,2.11-.6-3.09c-.49,.11-1.01,.11-1.52,0-.49-.11-.98-.31-1.41-.6-.43-.29-.8-.69-1.06-1.11-.29-.46-.49-.94-.57-1.46L3.11,2.6c.2,1.06,.03,2.34-.55,3.23-.26,.46-.63,.83-1.03,1.11-.43,.29-1.03,.51-1.52,.63L4.72,31.37l2.53-.49,.37,2-2.47,.51,.66,3.43c.49-.11,1.01-.11,1.52,0,.49,.09,.98,.31,1.41,.6,.43,.29,.81,.69,1.06,1.11,.29,.43,.49,.94,.57,1.46h-.06l11.13-2.09c.6,.43,1.32,.71,2.13,.77l14.89,1.29h.4c2.27,0,4.2-1.69,4.4-3.91l2.73-29.89c.2-2.37-1.58-4.46-4-4.66l-.03,.03ZM10.78,32.29l-.37-2,3.13-.63,.37,2-3.13,.63Zm5.64-10.34s-.09-.17-.11-.26v-.29c0-.09,.06-.17,.09-.26,.03-.09,.11-.14,.17-.2,.09-.06,.14-.09,.26-.11l.09-.06c.17-.57,1.49-5.26,1.52-5.31v-.11l-3.68-4.54-7.19,1.4,2.5,13.06,4.83-.97-2.1-10.6-1.49,5.51v.09s.03,.2,.11,.26c.4,.51,2.39,3.14,2.39,3.14,.11,.14,.14,.31,.14,.51,0,.17-.09,.34-.2,.49-.12,.11-.29,.17-.46,.14-.17,0-.32-.09-.43-.23h-.06s-1.98-2.69-2.39-3.17c-.2-.23-.32-.51-.4-.83-.06-.31-.06-.63,.03-.91,.63-2.26,1.55-5.66,1.67-6.03,.06-.23,.2-.46,.37-.63,.17-.17,.4-.26,.63-.29,.14-.03,.29-.03,.43,0,.14,.03,.29,.09,.4,.17,.23,.2,.4,.46,.46,.77l2.18,11.34c.06,.2,.06,.37,0,.57-.03,.2-.11,.37-.2,.51-.09,.11-.2,.23-.34,.31-.14,.09-.29,.14-.43,.14l-5.09,1.03c-.17,.03-.32,.03-.49,0-.17-.03-.32-.11-.46-.23-.2-.17-.35-.43-.4-.71v-.09l-2.62-13.4c-.03-.17-.03-.34,0-.51,.03-.17,.09-.31,.2-.46,.09-.11,.2-.23,.32-.31,.11-.09,.26-.11,.43-.14l7.33-1.51c.23-.06,.46-.03,.69,.03,.23,.06,.43,.2,.57,.4l3.71,4.63c.17,.2,.29,.46,.34,.71,.06,.26,.03,.54-.03,.8l-1.52,5.26c-.06,.29-.2,.51-.4,.71-.2,.2-.46,.31-.75,.34h-.26c-.09,0-.17-.06-.26-.11-.09-.06-.14-.11-.2-.2l.09,.14Zm.26,7.06l3.13-.63,.17,.89-.11,1.17-2.82,.57-.37-2Zm23.26,6.8c-.06,.54-.52,.97-1.18,.97l-14.89-1.29c-.6-.06-1.06-.57-1.01-1.17l2.73-29.89c.06-.54,.52-.97,1.09-.97h.11l14.89,1.31c.6,.06,1.06,.57,1.01,1.17l-2.73,29.89-.03-.03Z"/><path class="f" d="M33.58,11.89s-6.24,3.86-6.64,8.23c-.14,1.6,1.03,3.03,2.65,3.17,.78,.06,1.49-.17,2.04-.63-.92,1.77-2.13,2.91-3.33,2.8l-.06,.63,4,.34,4,.34,.06-.63c-1.24-.11-2.21-1.46-2.79-3.34,.49,.54,1.15,.91,1.9,.97,1.61,.14,3.05-1.06,3.19-2.66,.4-4.37-5.03-9.23-5.03-9.23h.03Z"/></g></g></g></g></svg>