<?xml version="1.0" encoding="UTF-8"?><svg xmlns="http://www.w3.org/2000/svg" xmlns:xlink="http://www.w3.org/1999/xlink" viewBox="0 0 40 40"><defs><style>.e{fill:none;}.f{fill:#979696;}.g{clip-path:url(#d);}</style><clipPath id="d"><rect class="e" width="40" height="40"/></clipPath></defs><g id="a"/><g id="b"><g id="c"><g class="g"><g><path class="f" d="M23.83,18.65h-4.68v-1.88c0-.35-.08-.7-.22-1.03-.14-.33-.35-.62-.6-.87-.26-.25-.56-.44-.89-.57-.33-.13-.68-.19-1.04-.19h-5.47c-.35,0-.7,.06-1.03,.19-.33,.13-.63,.32-.88,.57s-.46,.54-.59,.87c-.14,.32-.21,.67-.22,1.03v1.88H3.52c-.92-.01-1.8,.34-2.46,.97-.66,.64-1.04,1.51-1.06,2.43v14.55c.02,.92,.4,1.79,1.06,2.43,.66,.64,1.55,.99,2.46,.97H23.83c.92,.01,1.8-.34,2.46-.97s1.04-1.51,1.06-2.43v-14.55c-.02-.92-.4-1.79-1.06-2.43-.66-.64-1.55-.99-2.46-.97Zm-13.28-1.88c0-.1,.04-.2,.11-.27,.07-.07,.17-.12,.27-.13h5.47c.11,0,.21,.04,.28,.12,.08,.07,.12,.18,.12,.28v1.88h-6.25v-1.88Z"/><path class="f" d="M36.48,6.92h-1.18V2.27h.4c.3,0,.59-.1,.81-.31,.22-.21,.35-.49,.36-.79,0-.15-.02-.3-.07-.43-.05-.14-.13-.27-.23-.38-.1-.11-.22-.2-.35-.26-.13-.06-.28-.1-.43-.1h-9.47c-.15,0-.3,.02-.43,.07-.14,.05-.27,.13-.38,.23-.11,.1-.2,.22-.26,.35-.06,.13-.1,.28-.1,.43-.01,.3,.09,.6,.29,.82,.2,.22,.48,.36,.78,.38h.5V6.92h-1.18c-.92,0-1.8,.35-2.46,.98-.66,.64-1.04,1.5-1.07,2.42v6.05h1.8c1.53-.02,3.01,.56,4.11,1.63,1.1,1.06,1.74,2.52,1.77,4.05v15h4.83v1.9c0,.15,.04,.31,.11,.45,.07,.14,.16,.27,.27,.37s.25,.19,.39,.24c.15,.05,.3,.08,.45,.07,.29-.02,.57-.14,.78-.35,.21-.21,.33-.48,.35-.78v-1.9c.84-.08,1.63-.47,2.21-1.09,.58-.62,.9-1.44,.92-2.28V10.4c-.02-.92-.4-1.79-1.06-2.43-.66-.64-1.55-.99-2.46-.97v-.07Zm-7.5,0V2.27h3.9V6.92h-3.9Z"/></g></g></g></g></svg>